Land_normalized_pl04_filtered_grf
version=1
nRows=20
nColumns=37
inDegrees=yes
endheader
time		1_ground_force_vx		1_ground_force_vy		1_ground_force_vz		1_ground_force_px		1_ground_force_py		1_ground_force_pz		1_ground_torque_x		1_ground_torque_y		1_ground_torque_z		2_ground_force_vx		2_ground_force_vy		2_ground_force_vz		2_ground_force_px		2_ground_force_py		2_ground_force_pz		2_ground_torque_x		2_ground_torque_y		2_ground_torque_z		3_ground_force_vx		3_ground_force_vy		3_ground_force_vz		3_ground_force_px		3_ground_force_py		3_ground_force_pz		3_ground_torque_x		3_ground_torque_y		3_ground_torque_z		4_ground_force_vx		4_ground_force_vy		4_ground_force_vz		4_ground_force_px		4_ground_force_py		4_ground_force_pz		4_ground_torque_x		4_ground_torque_y		4_ground_torque_z		
0.827833		-16.117195		755.651484		207.312824		0.114060		0.000000		0.262820		-0.214051		10.036588		2.753556		61.149118		995.576328		209.590717		-0.135078		0.000000		0.259045		-0.219397		-3.572023		-0.751989		22.737657		0.894649		0.465547		0.375166		1.311133		1.912821		-0.099757		-0.003925		-0.002043		-18.946338		-0.460403		0.908788		-0.265564		1.310094		1.923323		0.012908		0.000314		-0.000619		
0.830763		-20.177917		754.862871		202.289151		0.114987		0.000000		0.262803		-0.253939		9.500749		2.546050		59.876530		999.169662		209.021238		-0.134871		0.000000		0.258932		-0.218123		-3.639861		-0.761440		22.682891		0.959045		0.596585		0.375161		1.311148		1.912859		-0.102434		-0.004331		-0.002694		-18.891184		-0.543182		1.017405		-0.265574		1.310090		1.923357		0.012157		0.000350		-0.000655		
0.833692		-24.432504		753.854709		196.393759		0.115944		0.000000		0.262914		-0.290834		8.974193		2.337979		58.535092		999.975751		207.891696		-0.134654		0.000000		0.258783		-0.218605		-3.734520		-0.776394		22.594727		1.050787		0.675161		0.375167		1.311159		1.912893		-0.104501		-0.004860		-0.003123		-18.831895		-0.606943		1.148489		-0.265588		1.310087		1.923395		0.010859		0.000350		-0.000662		
0.836621		-28.824963		752.812547		189.759386		0.116927		0.000000		0.263198		-0.324168		8.466583		2.134171		57.292268		998.087926		206.249277		-0.134449		0.000000		0.258591		-0.218293		-3.802887		-0.785845		22.501433		1.127669		0.684331		0.375177		1.311168		1.912926		-0.105253		-0.005275		-0.003201		-18.782799		-0.643041		1.275725		-0.265608		1.310088		1.923437		0.009455		0.000324		-0.000642		
0.839551		-33.267436		751.937896		182.589334		0.117905		0.000000		0.263626		-0.353919		7.999722		1.942543		56.313847		993.940993		204.199762		-0.134275		0.000000		0.258357		-0.215571		-3.804838		-0.781683		22.423014		1.149141		0.630586		0.375185		1.311178		1.912963		-0.104363		-0.005348		-0.002935		-18.754244		-0.653301		1.381616		-0.265630		1.310097		1.923483		0.008444		0.000295		-0.000622		
0.842480		-37.628829		751.463973		175.162340		0.118822		0.000000		0.264108		-0.379986		7.588527		1.768851		55.674955		988.224981		201.797648		-0.134142		0.000000		0.258099		-0.210596		-3.738054		-0.763318		22.369897		1.095242		0.545156		0.375185		1.311191		1.913006		-0.102038		-0.004996		-0.002486		-18.750067		-0.645988		1.465050		-0.265655		1.310114		1.923534		0.008098		0.000279		-0.000633		
0.845409		-41.737713		751.664441		167.815767		0.119598		0.000000		0.264524		-0.401817		7.236565		1.615642		55.351968		981.720544		199.038674		-0.134049		0.000000		0.257850		-0.204880		-3.633734		-0.736721		22.346963		0.974967		0.472818		0.375175		1.311204		1.913056		-0.099013		-0.004320		-0.002095		-18.766336		-0.629635		1.537362		-0.265678		1.310139		1.923589		0.008336		0.000280		-0.000683		
0.848338		-45.391488		752.811899		160.865550		0.120173		0.000000		0.264802		-0.419414		6.956038		1.486425		55.292323		975.125707		195.948280		-0.133994		0.000000		0.257639		-0.200101		-3.528942		-0.709130		22.356152		0.822721		0.449582		0.375161		1.311216		1.913111		-0.096267		-0.003543		-0.001936		-18.793520		-0.609209		1.610693		-0.265698		1.310166		1.923649		0.008838		0.000287		-0.000757		
0.851268		-48.367329		755.091081		154.517482		0.120511		0.000000		0.264946		-0.434469		6.782809		1.388003		55.498178		968.959829		192.668315		-0.133978		0.000000		0.257479		-0.196887		-3.437515		-0.683518		22.395141		0.684720		0.485485		0.375147		1.311226		1.913164		-0.094547		-0.002891		-0.002050		-18.821607		-0.586440		1.688236		-0.265713		1.310189		1.923709		0.009296		0.000290		-0.000833		
0.854197		-50.443320		758.467455		148.852268		0.120608		0.000000		0.265005		-0.449803		6.763237		1.327310		56.042324		963.564287		189.463034		-0.134011		0.000000		0.257363		-0.194336		-3.341331		-0.656999		22.454705		0.602503		0.560516		0.375139		1.311231		1.913212		-0.094046		-0.002523		-0.002348		-18.843799		-0.562122		1.763374		-0.265720		1.310204		1.923766		0.009573		0.000286		-0.000896		
0.857126		-51.424884		762.581624		143.906720		0.120479		0.000000		0.265031		-0.467104		6.926699		1.307129		57.002646		959.142080		186.619177		-0.134106		0.000000		0.257278		-0.190676		-3.208378		-0.624252		22.520844		0.600183		0.636615		0.375139		1.311235		1.913253		-0.094431		-0.002516		-0.002670		-18.856727		-0.538555		1.825500		-0.265720		1.310209		1.923817		0.009700		0.000277		-0.000939		
0.860056		-51.171620		766.730621		139.765152		0.120139		0.000000		0.265025		-0.485104		7.268581		1.324963		58.365958		955.800633		184.307283		-0.134258		0.000000		0.257207		-0.184666		-3.024105		-0.583140		22.580250		0.680182		0.677138		0.375151		1.311237		1.913284		-0.095146		-0.002866		-0.002853		-18.859317		-0.521119		1.868019		-0.265712		1.310204		1.923861		0.009733		0.000269		-0.000964		
0.862985		-49.628019		769.965190		136.563810		0.119595		0.000000		0.264938		-0.499694		7.752638		1.375034		59.979006		953.578419		182.505038		-0.134444		0.000000		0.257149		-0.176741		-2.809930		-0.537792		22.623353		0.825653		0.663372		0.375171		1.311239		1.913310		-0.095761		-0.003495		-0.002808		-18.853816		-0.517441		1.891944		-0.265698		1.310192		1.923894		0.009657		0.000265		-0.000969		
0.865914		-46.855430		771.261568		134.407403		0.118855		0.000000		0.264682		-0.505747		8.324993		1.450788		61.586457		952.448851		181.033505		-0.134622		0.000000		0.257108		-0.168977		-2.613285		-0.496712		22.644001		1.006072		0.602270		0.375193		1.311240		1.913335		-0.096183		-0.004273		-0.002558		-18.846865		-0.533225		1.902134		-0.265683		1.310178		1.923921		0.009414		0.000266		-0.000950		
0.868843		-43.049970		769.739051		133.284814		0.117943		0.000000		0.264195		-0.499484		8.931224		1.546493		62.940258		952.301021		179.679092		-0.134757		0.000000		0.257089		-0.163652		-2.476110		-0.467191		22.637771		1.184292		0.520774		0.375211		1.311238		1.913364		-0.096648		-0.005056		-0.002224		-18.845928		-0.566853		1.900445		-0.265667		1.310167		1.923946		0.009038		0.000272		-0.000911		
0.871773		-38.498854		764.794121		133.079003		0.116905		0.000000		0.263467		-0.479563		9.527251		1.657810		63.903670		952.941104		178.312044		-0.134832		0.000000		0.257086		-0.161510		-2.408460		-0.450665		22.600428		1.325401		0.454057		0.375223		1.311231		1.913398		-0.097486		-0.005717		-0.001959		-18.854188		-0.607476		1.882040		-0.265654		1.310158		1.923971		0.008765		0.000283		-0.000875		
0.874702		-33.521764		756.167417		133.609296		0.115804		0.000000		0.262548		-0.446785		10.078996		1.780902		64.481833		954.092818		176.909736		-0.134852		0.000000		0.257087		-0.161250		-2.385909		-0.442400		22.528789		1.405137		0.433761		0.375227		1.311217		1.913437		-0.098823		-0.006163		-0.001903		-18.869819		-0.637929		1.838565		-0.265646		1.310155		1.923998		0.009027		0.000305		-0.000880		
0.877631		-28.408610		743.926895		134.654710		0.114702		0.000000		0.261506		-0.403197		10.558949		1.911244		64.767882		955.411510		175.487000		-0.134837		0.000000		0.257077		-0.160690		-2.370384		-0.435385		22.423019		1.414051		0.477126		0.375224		1.311195		1.913476		-0.100455		-0.006335		-0.002138		-18.888397		-0.642522		1.765885		-0.265641		1.310155		1.924025		0.010235		0.000348		-0.000957		
0.880561		-23.381563		728.406913		135.940507		0.113645		0.000000		0.260396		-0.351461		10.949411		2.043469		64.849711		956.507236		173.997637		-0.134804		0.000000		0.257051		-0.158609		-2.339421		-0.425563		22.289719		1.355887		0.579993		0.375220		1.311169		1.913510		-0.101907		-0.006199		-0.002652		-18.905495		-0.615192		1.673158		-0.265639		1.310158		1.924052		0.012471		0.000406		-0.001104		
0.883490		-18.585396		710.138952		137.124630		0.112656		0.000000		0.259241		-0.294394		11.248739		2.172082		64.749077		956.975637		172.295018		-0.134758		0.000000		0.257009		-0.155778		-2.302361		-0.414519		22.143921		1.243896		0.716804		0.375220		1.311144		1.913535		-0.102590		-0.005763		-0.003321		-18.917458		-0.562630		1.586423		-0.265640		1.310163		1.924073		0.015273		0.000454		-0.001280		
